<svg xmlns="http://www.w3.org/2000/svg" width="207" height="80" viewBox="0 0 207 80"><path fill="#8FC31F" d="M0 0h207v80H0z"/><g fill="#fff"><g enable-background="new"><path d="M53.588 37.44c1.292-2.14 2.253-4.348 2.882-6.62h-2.71v-3.19h2.968v-4.317h3.115v4.317h2.526v3.188h-2.527v2.244c1.194.744 2.24 1.443 3.14 2.097l-1.423 2.943c-.433-.384-1.005-.855-1.717-1.41v10.73h-3.115V37.22c-.638 1.594-1.423 3.164-2.355 4.71-.163-1.13-.425-2.625-.785-4.49zm23.547-6.205v2.92c-.564 2.705-1.676 5.142-3.336 7.31 1.29 1.176 2.72 2.067 4.29 2.673-.93 1.21-1.667 2.24-2.206 3.09-1.578-.997-2.992-2.125-4.243-3.384-1.446 1.365-3.163 2.6-5.15 3.704-.67-1.095-1.35-2.1-2.036-3.017 1.97-.972 3.634-2.063 4.99-3.273-1.184-1.635-2.153-3.442-2.906-5.42-.54 4.97-1.995 8.84-4.366 11.613-.77-1.095-1.53-2.052-2.28-2.87.98-1.03 1.782-2.344 2.403-3.943.622-1.598 1.05-3.377 1.288-5.334.237-1.958.363-4.54.38-7.745h-1.717V24.54h13.368v2.82l-1.89 3.877h3.41v-.002zm-9.958-1.643c1.12 3.834 2.575 6.958 4.366 9.37 1.07-1.447 1.783-3.034 2.134-4.758H70.12v-2.968l1.717-3.68H67.2l-.023 2.036zM82.26 47.52v-8.227c-.735.14-1.496.274-2.28.405-.376-.998-.785-1.937-1.227-2.82 3.417-.426 6.304-.93 8.658-1.51-.866-.53-1.683-1.147-2.452-1.85-.998.653-2.077 1.274-3.238 1.863-.605-.833-1.218-1.585-1.84-2.255 2.78-1.194 5.044-2.698 6.794-4.513h3.802c-.262.335-.54.662-.834.98h9.175v-1.52H83.095v3.066h-3.36V25.3h9.517l-.76-1.766 4.194-.417c.23.59.486 1.317.772 2.183h8.72v5.837h-2.944v.785c-1.227 1.3-2.735 2.445-4.525 3.434 2.362.54 5.18.908 8.45 1.104l-1.228 3.017c-.777-.114-1.53-.233-2.256-.356v8.402H96.34v-1.178H85.597v1.178H82.26zm8.745-10.496c-1.954.695-4.292 1.333-7.015 1.913h14.643c-3-.548-5.542-1.185-7.628-1.913zm5.335 4.71H85.597v1.814H96.34v-1.815zm-5.298-7.494c1.38-.564 2.632-1.28 3.753-2.146h-7.42c1.08.867 2.302 1.582 3.667 2.146zM104.213 38.128h10.718v-.638l3.288-2.134h-8.977v-2.992h13.81v2.968l-4.22 2.796h9.15v3.04h-9.516v2.503c0 1.13-.315 2.008-.945 2.638-.63.63-1.592.948-2.89.957-1.295.008-2.626.013-3.992.013-.23-1.128-.507-2.207-.834-3.238 1.243.066 2.38.098 3.41.098 1.145 0 1.717-.5 1.717-1.497v-1.47h-10.717v-3.042zm4.906-14.963c.98 1.112 1.978 2.355 2.99 3.728l-1.09.736h4.096c-.687-1.318-1.32-2.43-1.9-3.337l2.99-1.324c.655.997 1.424 2.288 2.307 3.875l-1.693.785h3.005c1.12-1.61 2.064-3.01 2.833-4.194l3.31 1.815-1.986 2.38h3.532v6.034h-3.434v-3.04h-16.017v3.04h-3.434V27.63h4.01c-.72-.99-1.42-1.897-2.098-2.722l2.577-1.743zM135.78 33.566c1.21 1.57 1.815 3.59 1.815 6.06 0 1.307-.303 2.264-.908 2.87-.622.62-1.693.93-3.213.93-.114-1.11-.303-2.247-.564-3.408.36.082.646.123.858.123.687 0 1.03-.522 1.03-1.57 0-1.7-.613-3.327-1.84-4.88.59-2.273 1.145-4.407 1.668-6.402h-1.815V47.45h-2.82V24.49h7.677v2.428c-.586 2.16-1.216 4.375-1.887 6.648zm15.183 7.014c.883.31 1.758.597 2.625.858-.213 1.602-.41 2.738-.59 3.41-.408 1.618-1.413 2.427-3.016 2.427h-1.275c-1.946 0-2.92-1.038-2.92-3.115v-5.567h-1.667c-.23 3.025-1.055 5.233-2.477 6.622-.932.932-2.256 1.758-3.973 2.477-.703-1.047-1.39-1.954-2.06-2.722 1.766-.77 3.04-1.537 3.826-2.306.9-.883 1.455-2.24 1.668-4.07h-3.213v-2.846h14.742v2.845h-3.85v4.587c0 .72.228 1.08.686 1.08h.515c.376 0 .613-.27.712-.81.08-.36.17-1.316.268-2.87zm-13.147-14.716h5.445c-.18-.59-.375-1.275-.588-2.06l3.41-.466c.246.834.466 1.676.662 2.526h5.64V30.5h-2.893v-1.74h-8.83v1.74h-2.844v-4.636zm1.202 5.25h12.19v2.746h-12.19v-2.747z"/></g><g enable-background="new"><path d="M57.062 58.028l-1.55-5.065h.887l.805 2.923.3 1.088c.014-.053.1-.402.263-1.044l.806-2.967h.883l.758 2.938.253.97.29-.978.87-2.928h.833l-1.583 5.065h-.892l-.806-3.035-.196-.864-1.026 3.898h-.896zM64.115 58.028l-1.55-5.065h.887l.806 2.923.3 1.088c.014-.053.1-.402.263-1.044l.807-2.967h.883l.758 2.938.253.97.292-.978.868-2.928h.834L67.93 58.03h-.892l-.806-3.035-.195-.864-1.026 3.898h-.895zM71.17 58.028l-1.55-5.065h.887l.806 2.923.3 1.088c.014-.053.1-.402.263-1.044l.806-2.967h.883l.758 2.938.253.97.29-.978.87-2.928h.833l-1.585 5.065h-.892l-.806-3.035-.195-.864-1.026 3.898h-.896zM76.992 58.028v-.978h.977v.978h-.978zM78.37 59.992l.163-.73c.172.045.307.067.405.067.174 0 .306-.058.39-.174.087-.117.13-.407.13-.87V52.96h.858v5.34c0 .624-.08 1.06-.243 1.302-.207.32-.55.477-1.03.477-.232.002-.456-.028-.672-.088zm1.088-7.96v-.996h.858v.996h-.858zM81.638 52.022v-.987h.858v.987h-.858zm0 6.006v-5.065h.858v5.065h-.858zM83.808 58.028v-6.992h.858v3.987l2.032-2.06h1.11l-1.935 1.88 2.132 3.185h-1.06l-1.673-2.59-.606.582v2.01l-.858-.002zM92.154 56.397l.887.11c-.14.518-.398.92-.776 1.206s-.862.43-1.45.43c-.74 0-1.328-.23-1.762-.685-.434-.456-.65-1.097-.65-1.92 0-.853.218-1.514.657-1.984.438-.472 1.007-.706 1.706-.706.677 0 1.23.23 1.66.69.43.463.644 1.112.644 1.947 0 .052 0 .128-.005.23h-3.777c.03.556.19.98.472 1.277.283.296.636.444 1.06.444.314 0 .582-.083.805-.248.222-.166.4-.43.53-.79zm-2.818-1.39h2.828c-.038-.424-.146-.744-.324-.957-.273-.33-.628-.496-1.063-.496-.394 0-.726.132-.994.395-.27.263-.42.617-.447 1.058zM93.547 58.028l1.85-2.632-1.712-2.432h1.073l.777 1.187c.146.227.264.417.353.57.14-.21.27-.397.387-.56l.854-1.197h1.025l-1.75 2.385 1.884 2.68h-1.055l-1.04-1.574-.276-.425-1.33 1.998h-1.043zM102.322 58.028v-.744c-.394.572-.93.858-1.607.858-.3 0-.578-.057-.837-.172-.26-.114-.45-.26-.577-.432-.125-.173-.213-.386-.263-.636-.035-.17-.052-.436-.052-.8v-3.14h.858v2.81c0 .448.017.75.052.905.054.226.17.403.343.533.174.128.39.192.65.192s.498-.066.724-.197c.226-.132.386-.312.48-.538.092-.227.14-.557.14-.99v-2.714h.858v5.065h-.768zM107.902 56.397l.887.11c-.14.518-.4.92-.778 1.206-.38.286-.862.43-1.45.43-.742 0-1.328-.23-1.762-.685-.434-.456-.65-1.097-.65-1.92 0-.853.218-1.514.657-1.984.44-.472 1.007-.706 1.707-.706.677 0 1.23.23 1.66.69.43.463.643 1.112.643 1.947 0 .052 0 .128-.004.23h-3.777c.03.556.19.98.472 1.277.283.296.636.444 1.06.444.314 0 .583-.083.806-.248.22-.166.398-.43.528-.79zm-2.818-1.39h2.828c-.038-.424-.146-.744-.324-.957-.273-.33-.627-.496-1.063-.496-.394 0-.726.132-.995.395-.27.263-.418.617-.446 1.058zM109.83 59.978l-.097-.805c.188.05.352.076.492.076.19 0 .343-.034.458-.097.114-.064.208-.153.28-.267.054-.086.142-.3.263-.64.015-.046.04-.118.076-.21l-1.923-5.073h.924l1.055 2.932c.135.372.258.763.365 1.174.1-.394.217-.78.353-1.155l1.083-2.95h.86l-1.928 5.15c-.207.556-.368.94-.482 1.148-.153.283-.327.49-.525.623-.197.132-.432.197-.706.197-.163 0-.348-.035-.55-.105zM118.07 58.028v-.744c-.393.572-.93.858-1.607.858-.3 0-.578-.057-.837-.172-.26-.114-.45-.26-.577-.432-.127-.173-.215-.386-.265-.636-.036-.17-.053-.436-.053-.8v-3.14h.858v2.81c0 .448.017.75.053.905.054.226.168.403.343.533.174.128.39.192.65.192s.498-.066.724-.197c.225-.132.386-.312.48-.538.092-.227.14-.557.14-.99v-2.714h.858v5.065h-.768zM123.488 57.402c-.317.27-.624.462-.917.572-.293.112-.61.167-.945.167-.557 0-.984-.135-1.284-.406-.298-.273-.448-.62-.448-1.042 0-.248.057-.474.17-.68.112-.204.26-.37.444-.493s.39-.22.617-.283c.17-.044.423-.087.763-.128.693-.084 1.204-.182 1.53-.297.004-.12.005-.192.005-.225 0-.35-.08-.596-.242-.74-.22-.194-.546-.29-.978-.29-.403 0-.702.07-.894.212s-.334.393-.426.75l-.84-.113c.077-.36.203-.65.377-.87.175-.22.428-.39.76-.51.33-.12.712-.18 1.147-.18.433 0 .784.05 1.055.154.27.102.468.23.595.385.128.154.217.35.267.583.03.147.044.41.044.792v1.145c0 .8.017 1.303.054 1.515.037.21.11.413.217.608h-.897c-.09-.18-.146-.388-.172-.626zm-.07-1.917c-.313.128-.78.236-1.403.324-.353.05-.603.108-.75.17-.145.065-.258.158-.337.28-.08.123-.12.26-.12.407 0 .23.087.42.26.572.173.15.426.228.76.228.33 0 .625-.073.883-.217s.448-.34.568-.593c.093-.193.14-.48.14-.858v-.315zM125.615 58.028v-5.065h.772v.72c.372-.557.91-.835 1.612-.835.305 0 .585.054.84.165.257.11.448.253.576.43.127.18.216.39.267.635.03.158.047.437.047.834v3.115h-.858v-3.08c0-.35-.034-.613-.1-.786-.068-.172-.187-.31-.355-.413-.17-.103-.37-.156-.6-.156-.364 0-.68.117-.945.348-.265.233-.398.673-.398 1.322v2.766l-.86.002zM131.29 58.028v-.978h.98v.978h-.98zM137.067 56.172l.843.11c-.09.582-.33 1.037-.707 1.367-.38.328-.848.492-1.4.492-.693 0-1.25-.226-1.672-.68-.42-.452-.63-1.102-.63-1.95 0-.545.09-1.024.27-1.434.18-.41.458-.718.83-.922.368-.206.77-.308 1.207-.308.55 0 1 .14 1.35.417.35.278.573.673.672 1.185l-.836.128c-.08-.34-.22-.596-.42-.767-.204-.17-.448-.256-.734-.256-.432 0-.783.156-1.053.465-.27.31-.406.8-.406 1.47 0 .68.132 1.175.392 1.483.262.31.6.463 1.02.463.34 0 .62-.103.846-.31.225-.206.368-.525.43-.954zM138.326 55.494c0-.938.26-1.633.782-2.083.435-.375.966-.562 1.593-.562.697 0 1.266.227 1.708.684.442.456.662 1.086.662 1.89 0 .653-.097 1.165-.293 1.54-.195.372-.48.662-.853.868-.375.207-.782.31-1.224.31-.71 0-1.282-.227-1.72-.683-.436-.45-.654-1.107-.654-1.963zm.882 0c0 .65.142 1.135.425 1.458.282.322.64.483 1.068.483.426 0 .782-.162 1.064-.486.283-.325.425-.82.425-1.485 0-.625-.144-1.1-.427-1.423-.285-.323-.64-.485-1.06-.485-.43 0-.787.16-1.07.482-.283.32-.425.806-.425 1.454zM144.078 58.028v-5.065h.767v.71c.16-.248.37-.447.635-.598.263-.15.564-.226.9-.226.377 0 .684.076.925.232.24.157.41.373.507.654.4-.592.922-.887 1.564-.887.503 0 .888.138 1.16.416.27.278.405.707.405 1.285v3.478h-.852v-3.19c0-.344-.03-.59-.083-.743-.056-.15-.157-.273-.304-.365-.145-.09-.316-.137-.514-.137-.356 0-.652.12-.887.356-.235.235-.354.615-.354 1.136v2.944h-.858v-3.29c0-.383-.07-.67-.21-.86-.14-.19-.368-.285-.687-.285-.24 0-.464.063-.668.19-.206.127-.354.313-.447.557-.09.246-.137.598-.137 1.06v2.628h-.86v-.002z"/></g></g></svg>