<svg xmlns="http://www.w3.org/2000/svg" width="207" height="80" viewBox="0 0 207 80"><path fill="#2A2C2E" d="M0 0h207v80H0z"/><g fill="#fff"><path d="M82.496 43.38h9.906c.656-.597 1.188-1.28 1.625-1.99h-6.72c-1.405 0-2.53-1.024-2.53-2.304v-3.13c0-1.28 1.125-2.303 2.53-2.303h18.095c1.406 0 2.53 1.024 2.53 2.304v3.13c0 1.28-1.124 2.302-2.53 2.302h-9.594c-.406.71-.844 1.364-1.375 1.99h15.78v1.423h-6.843l7.28 3.67-.78 1.25-9.78-4.92h-7.064c-2.156 1.82-5.313 3.242-10.5 4.465l-.406-1.394c3.813-.882 6.47-1.877 8.375-3.07h-8V43.38zm21.438-14.875v1.507h6.28v1.45h-6.28v1.68h-1.563v-1.68h-12v1.68h-1.593v-1.68h-6.28v-1.45h6.28v-1.507h1.594v1.507h12v-1.507h1.564zm-13.157 20.28c-1.5 2.502-3.5 4.266-5.906 5.66l-.812-1.225c2.156-1.25 3.938-2.815 5.313-5.12l1.407.684zm-3.468-13.71c-.532 0-.97.398-.97.88v.91h20.03v-.91c0-.482-.437-.88-.968-.88H87.31zm19.06 4.01v-.768H86.34v.768c0 .483.438.88.97.88h18.093c.53.002.968-.396.968-.88zM95.497 46.65v5.376c0 1.564-1.438 2.845-3.094 2.845h-1.375v-1.45h1.375c.844 0 1.53-.625 1.53-1.394V46.65h1.564zm3.906 1.14l4.094 6.057-1.344.74-4.094-6.06 1.344-.738zm5.032 0l4.094 6.057-1.344.74-4.094-6.06 1.344-.738zM113.592 36.213h2.22c1.655 0 3.093 1.223 3.093 2.815V51.77c0 .77.688 1.394 1.53 1.394h1.814v1.422h-1.814c-1.75 0-3.094-1.308-3.094-2.815V39.03c0-.768-.688-1.394-1.53-1.394h-2.22v-1.42zm4.812-7.594v5.204h-1.563V28.62h1.564zm4.813 15.926h8.47V41.93h-4.595c-1.75 0-3.188-1.28-3.188-2.844v-7.253c0-1.593 1.438-2.816 3.188-2.816h10.72c1.78 0 3.218 1.223 3.218 2.816v7.253c0 1.564-1.438 2.844-3.22 2.844h-4.562v2.616h8.47v1.423h-3.376l3.375 8.275-1.438.483-3.595-8.76h-3.438v8.93h-1.563v-8.93h-4.03c-.532 2.9-1.595 5.858-3.845 8.617l-1.282-.853c2.03-2.475 3.063-5.148 3.53-7.765h-2.843v-1.42zm2.25-9.642h6.22V30.44h-4.595c-.906 0-1.625.624-1.625 1.393v3.07zm1.625 5.575h4.594v-4.154h-6.22v2.76c0 .768.75 1.393 1.626 1.393zm6.156-10.04v4.464h6.22v-3.072c0-.768-.75-1.394-1.657-1.394h-4.562zm6.22 8.645v-2.76h-6.22v4.154h4.563c.907 0 1.657-.626 1.657-1.395zM165.655 53.42h2.156c1.157 0 2.095-.824 2.095-1.934v-18.43c0-1.053-.938-1.906-2.094-1.906h-17.843c-1.156 0-2.063.853-2.063 1.906V54.9h-1.594V33.056c0-1.82 1.625-3.356 3.656-3.356h17.844c2 0 3.688 1.536 3.688 3.356v18.43c0 1.878-1.688 3.386-3.688 3.386h-2.156V53.42zm-14.843-18.885l3.75 6.23c.875-2.05 1.563-4.21 2.063-6.515l1.563.285c-.594 2.787-1.5 5.404-2.656 7.85l3.094 5.09-1.406.684-2.5-4.125c-1.25 2.304-2.72 4.466-4.406 6.514l-1.28-.855c1.874-2.247 3.468-4.636 4.75-7.225l-4.376-7.252 1.404-.683zm9.906-.313l3.5 6.74c.938-2.103 1.625-4.322 2.125-6.71l1.563.284c-.625 2.9-1.563 5.603-2.78 8.134l3.687 7.054-1.406.654-3.156-6.03c-1.187 2.19-2.624 4.238-4.218 6.2l-1.28-.853c1.812-2.19 3.374-4.494 4.655-6.997l-4.094-7.82 1.405-.656z"/></g><path fill="#C93A4B" d="M61.724 21.42c-.546-1.638-4.286-5.42-4.286-5.42s1.934 7.337-6.884 16.325c-11.987 12.218 1.044 27.008 1.044 27.008s-2.385-7.62-2.332-10.04c.06-2.768 4.176-9.333 4.176-9.333s-3.353 14.005 11.063 9.27c0 0 1.458 4.857 1.06 6.752-.426 2.02-4.333 7.96-4.333 7.96s10.794-8.926 11.72-13.25c.906-4.232-5.155-16.526-5.155-16.526s-3.428 4.39-4.828 3.77c-3.788-1.674.945-9.933-1.246-16.515z"/></svg>