<svg xmlns="http://www.w3.org/2000/svg" width="207" height="80" viewBox="0 0 207 80"><path fill="#E6E7E8" d="M0 0h207v80H0z"/><path fill="#D71718" d="M163.104 20.988H34.306c-2.964 0-5.668 2.705-5.668 6.044V54.22c0 3.338 2.703 6.045 5.667 6.045h128.422c3.715 0 6.422-2.707 6.422-6.045V27.032c0-3.34-2.707-6.044-6.046-6.044z"/><path fill="#040000" d="M175.966 58.5v-2.69l2.52.295v2.693zM175.907 49.372l.278-2.362c.497.19.93.458 1.294.802.368.34.648.764.855 1.255.197.49.302 1.1.302 1.82 0 .694-.068 1.275-.193 1.72-.133.455-.345.822-.634 1.124-.29.306-.63.527-1.024.674-.39.142-.91.173-1.56.102-.682-.082-1.24-.265-1.687-.55-.333-.205-.633-.473-.894-.8-.262-.32-.45-.646-.577-.97-.205-.513-.305-1.154-.305-1.922 0-1.073.19-1.873.572-2.39.385-.52.946-.847 1.688-.988l.313 2.413c-.278.034-.49.145-.633.325-.144.176-.216.435-.216.767 0 .41.152.77.447 1.063.298.292.754.476 1.357.544.542.065.952-.015 1.233-.237.276-.226.414-.532.414-.93 0-.335-.077-.62-.25-.863-.17-.247-.43-.444-.783-.598M175.218 46.043c-1.003-.117-1.835-.55-2.48-1.304-.648-.753-.974-1.706-.974-2.857 0-1.316.38-2.265 1.145-2.85.617-.47 1.368-.652 2.27-.545 1.01.122 1.842.55 2.49 1.298.643.743.968 1.713.968 2.894 0 1.056-.268 1.885-.812 2.472-.658.723-1.53 1.02-2.608.89m-.007-2.524c.585.07 1.016 0 1.303-.2.277-.204.418-.49.418-.85 0-.356-.14-.672-.412-.937-.278-.27-.724-.44-1.333-.505-.574-.07-.992 0-1.27.2-.284.204-.42.482-.42.827 0 .36.137.688.428.96.283.267.708.442 1.288.506"/><path fill="#040000" d="M171.907 36.868v-2.35l.965.11c-.4-.383-.685-.758-.854-1.127-.172-.363-.254-.784-.254-1.277 0-.522.092-.93.282-1.214.18-.286.458-.502.826-.654-.43-.446-.724-.84-.88-1.188-.154-.34-.228-.752-.228-1.23 0-.705.207-1.23.625-1.578.417-.347 1.08-.467 1.97-.364l4.124.482v2.53l-3.743-.44c-.296-.032-.516 0-.663.09-.23.143-.343.345-.343.596 0 .293.11.546.328.754.214.2.553.337 1.03.39l3.39.4v2.524l-3.622-.424c-.287-.035-.482-.042-.584-.02-.166.035-.298.11-.397.235-.103.123-.15.27-.15.45 0 .287.102.536.32.748.223.213.58.35 1.08.41l3.354.39v2.532l-6.577-.774z"/><path fill="#fff" d="M138.15 45.536c.04-4.547-3.224-6.383-3.857-6.7-.164-.086-.056-.184-.012-.216 1.14-.74 1.805-1.805 2.192-2.714.025-.052.05-.1.064-.153.015-.02.015-.037.027-.056.39-1.027.468-1.995.466-2.6-.005-.224-.018-.432-.032-.61v-.008c-.008-.068-.01-.132-.023-.194-.018-.17-.042-.33-.067-.495-.02-.07-.025-.117-.025-.117v.01c-.61-2.777-3.162-3.857-4.9-4.275-.924-.18-1.972-.24-2.63-.257h-3.174l-3.398.007h-1.98c-.484 0-.865.385-.865.86v24.915c0 .48.382.864.865.864h2.472c.18.003 4.237.082 6.62-.202h.015c.01 0 .026-.005.048-.005.217-.03.418-.06.6-.093 7.834-1.3 7.59-7.937 7.59-7.96zm-13.913-14.642h4.38c.433.003 1.475.05 2.264.355 1.61.81 1.645 2.637 1.645 2.618-.02 2.156-1.238 3.014-2.167 3.356-.423.16-.958.214-1.327.23h-4.793v-6.56zm9.455 14.478c.05 4.617-5.506 4.48-5.506 4.48h-3.95v-8.646h4.626c5.252.184 4.83 4.166 4.83 4.166zM94.607 34.543c-.286-2.732-1.847-7.452-9.215-7.468l-7.208-.003c-.358 0-.646.29-.646.648v25.437c0 .357.29.65.646.65H81.2c.355 0 .645-.293.645-.65v-9.125h3.547s7.054.316 8.926-6.13c.397-1.45.334-2.826.29-3.36zm-9.215 5.618h-3.547v-9.216h3.547s4.76.074 4.76 4.03c.017.016.355 5.22-4.76 5.187zM60.378 28.184L51.56 53.79h-4.403L38.34 28.184c-.184-.715.164-.982.362-1.07.017-.008.034-.01.056-.02.057-.015.112-.02.158-.022h.054l.015.002v-.002h3.207c.365.015.47.527.47.527l6.695 19.65 6.7-19.65s.115-.51.47-.527h3.21v.002l.017-.002h.054c.042.002.098.007.158.023.017.007.035.01.054.02.197.087.546.354.358 1.068zM160.306 33.212v.134c-.01.192-.058.536-.33.673-.02.01-.036.016-.05.02h-.003c-.12.037-.26.046-.44.024-.203-.045-.346-.123-.427-.182l-.525-.44s-2.476-2.293-6.075-2.54c-1.303-.032-2.323.28-2.76.437-1.512.623-3.705 2.108-4.516 5.56 0 0-1.205 4.598.73 9.054 0-.02 1.84 3.98 6.32 4.082.625 0 1.802-.09 3.14-.638.975-.437 2.432-1.208 3.592-2.31.094-.086.24-.18.404-.24.273-.088.667-.122.847.38.014.052.05.205.048.395v3.425c-.003.053-.013.24-.108.34-.078.083-.2.19-.35.274 0 0-4.816 3.24-11.183 1.757 0 0-6.702-1.305-7.918-9.29.03.03-1.102-5.75 1.116-10.67.806-1.598 1.598-2.546 2.074-3.037 1.362-1.297 4.303-3.43 8.884-3.306.03 0 3.875.108 6.918 1.982 0 0 .635.294.61.747v3.365h.002zM116.81 52.637l-8.473-25.274c-.01-.03-.037-.07-.078-.106-.12-.092-.324-.1-.324-.1h-4.327s-.21.007-.327.1c-.04.035-.064.076-.078.106l-8.47 25.274s-.35.802.375 1.08c.05.014.167.043.395.043H98.514c.07 0 .17-.01.25-.056.114-.077.256-.233.344-.58.017-.016 2.123-6.676 2.123-6.676h9.075s2.107 6.66 2.13 6.677c.076.347.225.502.334.58.085.045.19.055.26.055H116.037c.227 0 .34-.03.4-.043.72-.28.374-1.08.374-1.08zm-14.32-9.98l3.283-9.935 3.28 9.934h-6.562zM70.327 53.354c0 .295-.24.533-.534.533h-3.196c-.296 0-.535-.238-.535-.533V27.607c0-.295.24-.535.535-.535h3.197c.293 0 .534.24.534.535v25.747z"/></svg>