<svg xmlns="http://www.w3.org/2000/svg" viewBox="0 0 207 80" enable-background="new 0 0 207 80"><path fill="#1BA387" d="M54.3 19.5s-20.8 22.2-8.9 31.9c0 0 19.6-21.2 8.9-31.9zM62.9 32.1S42.1 54.3 54 64c-.1-.1 19.5-21.3 8.9-31.9z"/><g fill="#fff"><path d="M81.3 47.8c-.2-.5-.5-.9-.9-1.5 7.1-1.5 11.4-3.6 12.9-6.5H80.6v-1.4h13.3c.8-1.9 1.1-5.2 1.1-9.8h1.6c0 4.2-.3 7.5-1 9.8h10.5v1.4H95c-.2.4-.4.7-.6 1.1 4.4 1.9 8.2 3.6 11.2 5.1l-.9 1.4c-3.8-1.9-7.5-3.7-11.2-5.3-2.1 2.4-6.2 4.3-12.2 5.7zm10.5-25.5l1.3-.6c.5.9 1.1 2 1.8 3.3l-1.2.6h11.6V30h-1.5v-3.1H82.6V30h-1.5v-4.5h12.3c-.5-1.1-1-2.2-1.6-3.2zm-3.1 14.6c-1.7-1-3.4-2-5.2-2.8l.8-1.2c1.9.9 3.7 1.8 5.3 2.7l-.9 1.3zm2.5-4c-1.7-1.1-3.4-2-5.1-2.9l.8-1.1c2 1 3.7 2 5.2 2.8l-.9 1.2zM107.9 41.6l-.2-1.4c1.7-.3 3.7-.6 6.1-1.1 0 .1 0 .4-.1.7v.7c-1.6.2-3.5.6-5.8 1.1zm3-15.3l-.6 8.1h3.5l.8-9.9h-6.1v-1.3h7.6l-.8 11.2h1.7c-.1 3.5-.2 6.7-.4 9.5 0 2.1-1.2 3.2-3.6 3.2H110.3c0-.5-.1-1-.3-1.4.8.1 1.8.1 2.9.1 1.6.1 2.3-.6 2.4-2.1.1-1.7.2-4.4.3-8H109l.7-9.4h1.2zm22.2 5.7c-3.2-2-5.7-4.6-7.7-7.8-1.7 3-4.3 5.7-7.7 8.1-.3-.4-.6-.8-1-1.3 3.8-2.5 6.7-5.7 8.6-9.6l1.5.3-.4.8c-.1.2-.2.3-.2.4 2.3 3.5 4.9 6 7.9 7.7-.4.6-.7 1-1 1.4zm-15.4 12.9h9.6c1.3-3.4 2.4-6.6 3.3-9.8l1.4.4c-1.2 3.8-2.3 6.9-3.3 9.4h4.8v1.4h-15.8v-1.4zm1.1-8.9l1.3-.4c.5 1.5 1.2 3.8 2.1 7l-1.4.4c-.5-1.9-1.2-4.3-2-7zm1.1-4.5h10.8v1.3h-10.8v-1.3zm4.1 3.7l1.3-.3c.5 1.8 1.1 3.9 1.7 6.5l-1.4.3c-.4-2-.9-4.2-1.6-6.5zM136.1 40c-.2-.5-.4-1.1-.7-1.5 1.9-2.9 3.3-6.2 4.1-9.9h-3.4v-1.3h3.4v-5.4h1.4v5.4h3v1.3h-3v4.7l.8-.7c.9.8 1.8 1.8 2.7 2.8l-1.1.9c-.1-.1-.2-.2-.3-.4-1-1.1-1.7-1.9-2.1-2.4v14.3h-1.4V31.6c-.7 3.1-1.8 5.9-3.4 8.4zm7.3 7.8c-.2-.4-.4-.9-.8-1.4 4.1-.8 7-1.6 8.8-2.6-.8-.3-2.1-.9-3.9-1.6-.7-.3-1.3-.5-1.6-.7l2.4-3h-4.4v-1.3h5.3c.5-.7 1-1.5 1.4-2.2l1.5.5s-.1.1-.1.2c-.5.7-.8 1.2-1.1 1.5h10.6v1.3h-3.6c-1 2.3-2.2 4-3.5 5.1 2.6 1 4.8 1.9 6.6 2.7l-.9 1.3c-2.8-1.3-5.1-2.3-7-3.1-1.9 1.2-5.1 2.4-9.7 3.3zm1.7-12.6c-.2-.4-.5-.9-.9-1.3 3.2-1.1 5.7-2.6 7.5-4.6h-6.6V28h6.9v-6.3h1.4V28h7.8v1.3h-7.5c2.1 2.1 4.7 3.5 8 4.3-.3.4-.6.9-.8 1.4-3.4-1.1-5.9-2.6-7.5-4.6v4.3H152v-4.3c-1.7 2-4 3.6-6.9 4.8zm.6-11.1l1-.9c.9.7 2 1.7 3.3 3l-1.1 1c-.9-1-2-2-3.2-3.1zm2.3 16.8c1.1.4 2.7 1.1 4.9 1.9 1.4-1 2.5-2.5 3.4-4.5H150c-.3.4-.8 1-1.4 1.8-.3.4-.5.7-.6.8zm7.3-14.7c1.3-1 2.4-2.1 3.4-3.1l1.1.9c-.7.7-1.8 1.8-3.4 3.1l-1.1-.9z"/></g><g fill="#fff"><path d="M84.7 59.2v-.7c.2.2.5.3.8.4.3.1.6.2.8.2 1 0 1.5-.4 1.5-1.2 0-.3-.1-.5-.3-.7s-.6-.4-1-.6c-.6-.3-1-.5-1.3-.8-.2-.3-.4-.6-.4-1 0-.5.2-.9.6-1.2.4-.3.9-.5 1.4-.5.5 0 1 .1 1.4.3v.6c-.5-.3-.9-.5-1.4-.5-.4 0-.7.1-1 .3-.3.2-.4.5-.4.8 0 .3.1.5.2.7.2.2.5.4 1 .6.6.3 1.1.6 1.3.8.2.2.4.6.4 1 0 .5-.2.9-.6 1.2-.4.3-.9.5-1.5.5-.6.3-1.1.1-1.5-.2zM94.1 59.5v-3.7c0-.7-.1-1.3-.4-1.6-.3-.3-.7-.5-1.3-.5-.5 0-1 .2-1.4.6-.4.4-.6 1-.6 1.8v3.4h-.6v-9.2h.6v4.1c.5-.8 1.2-1.3 2.1-1.3.7 0 1.2.2 1.5.6.4.4.5 1.1.5 1.9v3.9h-.4zM96.8 51.7c-.1 0-.2 0-.3-.1-.1-.1-.1-.2-.1-.3 0-.1 0-.2.1-.3.1-.1.2-.1.3-.1.1 0 .2 0 .3.1.1.1.1.2.1.3 0 .1 0 .2-.1.3 0 .1-.2.1-.3.1zm-.3 7.8v-6.2h.6v6.2h-.6zM100.6 60.8c-.2.6-.5 1-.8 1.2-.3.3-.6.4-1.1.4-.2 0-.3 0-.5-.1v-.6c.1.1.3.1.5.1.5 0 .9-.3 1.2-1l.6-1.4-2.4-6.2h.6l1.9 5.1c0 .1.1.2.1.2 0 .1 0 .1.1.2l.1-.4 2-5.1h.6l-2.9 7.6zM108.5 59.5v-1.2c-.2.4-.5.8-.9 1-.4.3-.8.4-1.3.4-.6 0-1.1-.2-1.4-.5-.3-.3-.5-.8-.5-1.3 0-1.1.7-1.7 2.2-2l1.9-.3c0-1.3-.5-2-1.5-2-.7 0-1.3.3-2 .8v-.7c.2-.2.5-.3.9-.5.4-.1.8-.2 1.1-.2.6 0 1.1.2 1.5.6.3.4.5 1 .5 1.7v4c0 .2-.5.2-.5.2zm-1.8-3.1c-.7.1-1.1.2-1.4.5-.3.2-.4.5-.4 1 0 .4.1.7.4.9.2.2.6.4 1 .4.6 0 1.1-.2 1.5-.7.4-.4.6-1 .6-1.7v-.6l-1.7.2zM115.1 59.5v-3.6c0-1.5-.5-2.2-1.6-2.2-.6 0-1.1.2-1.5.7-.4.4-.6 1-.6 1.6v3.6h-.6v-6.2h.6v1.1c.5-.9 1.2-1.3 2.1-1.3.7 0 1.2.2 1.5.7.4.4.5 1.1.5 1.9v3.8l-.4-.1zM117.6 59.5v-9.2h.6v9.2h-.6zM122.6 59.7c-.9 0-1.6-.3-2.2-.9-.5-.6-.8-1.4-.8-2.3 0-1 .3-1.8.8-2.4.6-.6 1.3-.9 2.2-.9.9 0 1.6.3 2.1.9.5.6.8 1.4.8 2.4s-.3 1.8-.8 2.4c-.5.5-1.2.8-2.1.8zm.1-6c-.7 0-1.3.2-1.8.7-.4.5-.7 1.2-.7 2.1 0 .8.2 1.5.6 2 .4.5 1 .7 1.7.7.8 0 1.3-.2 1.7-.7.4-.5.6-1.2.6-2 0-.9-.2-1.6-.6-2-.2-.6-.8-.8-1.5-.8zM131.2 59.5v-1.1c-.4.9-1.1 1.3-2 1.3-1.5 0-2.2-.9-2.2-2.8v-3.6h.6v3.5c0 .8.1 1.5.4 1.8.3.4.7.6 1.3.6.6 0 1-.2 1.4-.6.4-.4.5-1 .5-1.7v-3.5h.6v6.2l-.6-.1zM134.2 59.6c-.1 0-.3 0-.3-.1-.1-.1-.1-.2-.1-.3 0-.1 0-.3.1-.3.1-.1.2-.1.3-.1s.3 0 .4.1.1.2.1.3c0 .1 0 .3-.1.3-.2.1-.3.1-.4.1zM140.6 59.2c-.5.3-1 .4-1.7.4-.8 0-1.5-.3-2-.9-.5-.6-.8-1.3-.8-2.3 0-1 .3-1.8.9-2.4.6-.6 1.3-.9 2.3-.9.5 0 .9.1 1.4.3v.6c-.4-.3-.9-.4-1.5-.4-.7 0-1.3.3-1.8.8s-.7 1.2-.7 2 .2 1.5.6 1.9c.4.5 1 .7 1.6.7.6 0 1.2-.2 1.6-.5l.1.7zM144.6 59.7c-.9 0-1.6-.3-2.2-.9-.5-.6-.8-1.4-.8-2.3 0-1 .3-1.8.8-2.4.6-.6 1.3-.9 2.2-.9.9 0 1.6.3 2.1.9.5.6.8 1.4.8 2.4s-.3 1.8-.8 2.4c-.5.5-1.2.8-2.1.8zm0-6c-.7 0-1.3.2-1.8.7-.4.5-.7 1.2-.7 2.1 0 .8.2 1.5.6 2 .4.5 1 .7 1.7.7.8 0 1.3-.2 1.7-.7.4-.5.6-1.2.6-2 0-.9-.2-1.6-.6-2-.2-.6-.8-.8-1.5-.8zM156.9 59.5v-3.7c0-.8-.1-1.3-.4-1.7-.2-.3-.6-.5-1.2-.5-.5 0-.9.2-1.3.6-.4.4-.5 1-.5 1.6v3.6h-.5v-3.8c0-1.4-.5-2.1-1.6-2.1-.5 0-.9.2-1.3.6-.3.4-.5 1-.5 1.6v3.6h-.6v-6.2h.6v1c.4-.8 1.1-1.2 1.9-1.2.5 0 .8.1 1.2.4.3.3.5.6.7 1 .2-.5.5-.8.8-1 .4-.3.8-.4 1.2-.4 1.4 0 2 .8 2 2.5v3.9l-.5.2z"/></g></svg>