<svg xmlns="http://www.w3.org/2000/svg" viewBox="0 0 207 80" enable-background="new 0 0 207 80"><g><path fill="#359939" d="M40 28.8L69.1 23l.5 25.4-10.2 2.2-7 7.8-.9-6.9L40 54.2V28.8"/><path fill="#359939" d="M67.8 30.5h3.8v23.4l-29.2-.6v-6l-1.7.1v7.4H73V28.9h-6z"/><g fill="#494544"><path d="M100.4 42.5c2.7 3 5.4 6.3 8.1 9.7l-2.1 1.5c-.7-.9-1.3-1.8-2-2.7-6.6.2-12.2.5-16.8.8-.8.1-1.5.2-2.2.4l-1.1-2.5c1.1-.5 2-1.2 2.8-2.1 2-2.4 3.8-5 5.5-7.8h-10v-2h27.1v2H95.6c-2.8 4.1-5.2 7.4-7.2 9.8 6.3-.2 11.1-.3 14.5-.4-1.5-1.9-2.9-3.7-4.4-5.4l1.9-1.3zM85.2 29.3h21.9v2H85.2v-2zM119.5 47.5c-1.4 1.2-2.6 2.3-3.6 3.3-.5.5-1 1.1-1.4 1.5l-1.5-1.8c.6-.5.9-1.3.9-2.4v-9.7h-3.1v-2h5.1V48c.9-.8 2-1.8 3.1-2.9.1.8.3 1.6.5 2.4zm-5.7-19.6c1.7 1.6 3 3.1 4.1 4.4l-1.7 1.4c-1.3-1.7-2.6-3.2-3.8-4.5l1.4-1.3zm24.4 22.9c-.5.7-.9 1.4-1.4 2.1-3.3-1.7-6-4.2-8.1-7.4v9h-2v-8.9c-2.3 3.3-4.9 5.9-7.8 7.7-.5-.7-1.1-1.3-1.6-1.8 3.4-1.8 6.2-4.1 8.4-6.9h-7.5v-1.8h8.5v-3h-5.1v.9h-1.9V28.5h16.2v12.2H134v-.9h-5.1v3h8.7v1.8h-7.7c2.1 2.9 5 5 8.3 6.2zm-16.6-17.5h5.1v-3h-5.1v3zm0 4.7h5.1v-3h-5.1v3zm12.3-7.8h-5.1v3h5.1v-3zm-5.1 7.8h5.1v-3h-5.1v3zM139.2 51.2h12.6v-3h-10v-1.9h10v-2.8h-5.6v1.2h-1.9v-8.2h17.1v8.2h-1.9v-1.2h-5.6v2.8H164v1.9h-10.1v3h12.5v1.9h-27.1v-1.9zm1-18.7h11.5v-5.1h2.1v5.1h11.6v6.6h-2v-4.7h-21.1v4.7h-2l-.1-6.6zm2.6-3.4l1.3-1.4c1.4.9 2.8 1.9 4.2 2.9l-1.5 1.6c-1.3-1-2.6-2.1-4-3.1zm16.6 9.2h-13.3v3.3h13.3v-3.3zm-2.1-7.5c1.5-1 3-2.1 4.3-3.2l1.6 1.6c-1.4 1.1-3 2.1-4.6 3.2l-1.3-1.6z"/></g></g></svg>