<?xml version="1.0" encoding="utf-8"?>
<!-- Generator: Adobe Illustrator 16.0.4, SVG Export Plug-In . SVG Version: 6.00 Build 0)  -->
<!DOCTYPE svg PUBLIC "-//W3C//DTD SVG 1.1//EN" "http://www.w3.org/Graphics/SVG/1.1/DTD/svg11.dtd">
<svg version="1.1" id="devnode" xmlns="http://www.w3.org/2000/svg" xmlns:xlink="http://www.w3.org/1999/xlink" x="0px" y="0px"
	 width="600px" height="144.871px" viewBox="0 0 600 144.871" enable-background="new 0 0 600 144.871" xml:space="preserve">
<path fill="#46483E" d="M78.922,427.369c0-1.523-0.801-2.921-2.115-3.675l-35.015-20.153c-0.593-0.348-1.257-0.527-1.93-0.556h-0.36
	c-0.67,0.026-1.333,0.208-1.935,0.556L2.551,423.693c-1.305,0.754-2.117,2.151-2.117,3.675l0.077,54.262
	c0,0.756,0.393,1.457,1.056,1.826c0.65,0.392,1.453,0.392,2.102,0l20.811-11.913c1.316-0.783,2.116-2.161,2.116-3.67v-25.354
	c0-1.512,0.803-2.907,2.113-3.659l8.86-5.104c0.659-0.381,1.382-0.567,2.121-0.567c0.722,0,1.461,0.188,2.104,0.567l8.856,5.104
	c1.312,0.752,2.114,2.147,2.114,3.659v25.354c0,1.508,0.812,2.896,2.121,3.669l20.805,11.914c0.652,0.391,1.469,0.391,2.114,0
	c0.646-0.369,1.051-1.071,1.051-1.826L78.922,427.369z"/>
<path fill="#46483E" d="M265.902,352.775c-0.654-0.365-1.456-0.357-2.104,0.021c-0.646,0.381-1.044,1.074-1.044,1.824v53.739
	c0,0.527-0.282,1.017-0.736,1.281c-0.458,0.265-1.023,0.265-1.481,0l-8.771-5.054c-1.31-0.755-2.917-0.753-4.227,0.001
	l-35.03,20.218c-1.312,0.754-2.114,2.151-2.114,3.661v40.441c0,1.511,0.805,2.906,2.113,3.663l35.028,20.229
	c1.312,0.757,2.921,0.757,4.23,0l35.035-20.229c1.31-0.757,2.114-2.152,2.114-3.663V368.102c0-1.533-0.829-2.947-2.169-3.694
	L265.902,352.775z M262.652,455.621c0,0.379-0.202,0.729-0.529,0.914l-12.025,6.934c-0.328,0.189-0.73,0.189-1.057,0l-12.028-6.934
	c-0.326-0.188-0.529-0.536-0.529-0.914v-13.888c0-0.378,0.203-0.728,0.528-0.914l12.028-6.947c0.326-0.189,0.729-0.189,1.059,0
	l12.025,6.947c0.326,0.188,0.528,0.538,0.528,0.914V455.621L262.652,455.621z"/>
<path fill="#46483E" d="M391.227,441.37c1.304-0.757,2.104-2.15,2.104-3.657v-9.8c0-1.506-0.802-2.9-2.105-3.657l-34.805-20.209
	c-1.312-0.762-2.927-0.763-4.24-0.006l-35.019,20.217c-1.311,0.757-2.113,2.152-2.113,3.663v40.43c0,1.521,0.813,2.923,2.136,3.675
	l34.799,19.83c1.282,0.732,2.856,0.738,4.147,0.024l21.047-11.699c0.67-0.374,1.084-1.073,1.087-1.837
	c0.006-0.763-0.4-1.469-1.062-1.847l-35.235-20.229c-0.66-0.376-1.063-1.075-1.063-1.834v-12.672c0-0.756,0.401-1.454,1.061-1.831
	l10.968-6.322c0.651-0.376,1.459-0.376,2.111,0l10.974,6.322c0.655,0.377,1.06,1.075,1.06,1.831v9.973
	c0,0.755,0.403,1.454,1.061,1.834c0.655,0.377,1.463,0.375,2.118-0.005L391.227,441.37z"/>
<path fill="#80BD01" d="M142.619,403.829c1.309-0.757,2.92-0.757,4.229,0l35.023,20.213c1.312,0.754,2.117,2.151,2.117,3.663v40.456
	c0,1.513-0.806,2.908-2.114,3.666l-35.025,20.226c-1.311,0.756-2.921,0.756-4.23,0L107.6,471.827
	c-1.309-0.758-2.115-2.153-2.115-3.666v-40.458c0-1.51,0.808-2.907,2.117-3.661L142.619,403.829z"/>
<path fill="#80BD01" d="M353.783,439.479c0.252-0.146,0.561-0.146,0.812,0l6.722,3.879c0.253,0.146,0.406,0.412,0.406,0.702v7.761
	c0,0.29-0.153,0.558-0.406,0.703l-6.722,3.88c-0.251,0.146-0.56,0.146-0.812,0l-6.716-3.88c-0.253-0.146-0.405-0.413-0.405-0.703
	v-7.761c0-0.29,0.152-0.559,0.405-0.702L353.783,439.479z"/>
<path fill="#46483E" d="M475.595,439.699c1.542,0.912,1.907,0.355,2.446,0.049c0.539-0.312,20.635-11.811,21.912-12.438
	c1.281-0.627,1.848-2.688,0.16-3.666c-1.687-0.979-35.68-20.671-34.038-19.826c1.769,0.906-1.688-1.163-3.688-0.244
	c-2,0.918-32.62,18.522-34.791,19.762c-2.169,1.24-2.854,2.432-2.846,4.082c0.006,1.652-0.109,38.27,0,40.442
	c0.107,2.173,0.968,2.881,2.113,3.664c1.146,0.782,32.157,18.962,34.504,20.232c2.347,1.273,3.886,0.838,5.409-0.057
	c1.524-0.897,31.913-18.258,33.129-19.032c1.217-0.773,2.321-2.765-0.221-4.201c-2.542-1.436-20.753-12.206-21.454-12.558
	c-0.702-0.353-1.118-0.357-2.135,0.212c-1.018,0.572-10.142,5.704-11.252,6.354c-1.11,0.648-1.27,0.356-1.801,0.047
	c-0.53-0.312-9.948-5.808-11.035-6.42c-1.086-0.61-1.216-0.921-1.22-1.754c-0.002-0.833-0.023-11.402,0.032-12.635
	c0.057-1.23,0.231-1.508,1.353-2.174c1.118-0.666,9.398-5.585,10.061-6.027c0.66-0.441,2.05-0.483,3.133,0.15
	C466.452,434.299,474.053,438.785,475.595,439.699"/>
<path fill="#46483E" d="M405.189,475.289c0.252-0.146,0.56-0.146,0.812,0l6.722,3.879c0.253,0.145,0.406,0.413,0.406,0.702v7.76
	c0,0.29-0.153,0.559-0.406,0.704L406,492.213c-0.252,0.146-0.56,0.146-0.812,0l-6.716-3.879c-0.253-0.146-0.405-0.414-0.405-0.704
	v-7.76c0-0.289,0.152-0.56,0.405-0.702L405.189,475.289z"/>
<text transform="matrix(1 0 0 1 -0.8669 382.624)" fill="#46483E" font-family="'Menlo-Regular'" font-size="40.3172">DEV</text>
<path fill="#46483E" d="M597.985,427.369c0-1.523-0.8-2.921-2.114-3.675l-35.016-20.153c-0.593-0.348-1.257-0.527-1.928-0.556
	h-0.362c-0.669,0.026-1.332,0.208-1.934,0.556l-35.019,20.153c-1.304,0.754-2.117,2.151-2.117,3.675l0.077,54.262
	c0,0.756,0.394,1.457,1.057,1.826c0.65,0.392,1.453,0.392,2.101,0l20.812-11.913c1.315-0.783,2.116-2.161,2.116-3.67V442.52
	c0-1.512,0.803-2.907,2.112-3.659l8.861-5.104c0.658-0.381,1.381-0.566,2.121-0.566c0.721,0,1.461,0.188,2.104,0.566l8.857,5.104
	c1.312,0.752,2.114,2.147,2.114,3.659v25.354c0,1.508,0.812,2.896,2.12,3.67l20.806,11.913c0.651,0.391,1.468,0.391,2.114,0
	c0.646-0.369,1.051-1.071,1.051-1.826L597.985,427.369z"/>
</svg>
