<svg xmlns="http://www.w3.org/2000/svg" width="207" height="80" viewBox="0 0 207 80"><g fill="#414042"><path d="M0 0h207v80H0zM.292.604h206.5v79.5H.292z"/></g><circle fill="#24AC4B" cx="57.827" cy="40" r="18.531"/><g fill="#fff"><path d="M47.058 28.388s-.23 28.058 10.72 23.724c10.95-4.336-10.72-23.724-10.72-23.724zM67.816 28.388s6.387 28.317-17.35 28.217c-.443-.002-1.355-.16-1.355-.16s9.62-.823 12.547-6.158c1.388-2.53-.913-7.45-2.51-10.112s8.67-11.787 8.67-11.787z"/></g><g fill="#fff"><path d="M101.544 41.207v2.228c-1.34 1.068-2.807 2.03-4.402 2.883 1.942.465 4.097.802 6.463 1.01-.68 1.166-1.214 2.145-1.603 2.937-3.11-.452-5.92-1.223-8.43-2.313-2.687 1.04-5.684 1.847-8.994 2.415-.43-.93-.902-1.817-1.416-2.664 2.672-.34 5.087-.808 7.245-1.405-1.007-.617-1.985-1.305-2.935-2.062-.688.542-1.416 1.08-2.187 1.614-.762-.61-1.554-1.193-2.373-1.75 2.234-1.304 4.142-2.67 5.725-4.1h-5.56v-2.207h8.682v-1.04h-7.1v-2.166h7.1v-1.04h-7.995V31.38h7.994v-1.747h2.934v1.748h8.016v2.167h-8.016v1.04h7.037v2.165h-7.036v1.04h8.682V40h-11.48c-.34.402-.703.805-1.084 1.207h10.732zm-7.89 4.02c1.36-.543 2.61-1.167 3.748-1.875h-7.276c1.047.722 2.223 1.345 3.528 1.874zM104.375 38.896h8.91V36.46l5.06-2.81H105.79v-2.77h17.53v2.77l-6.87 4.1v1.146h8.35v2.83h-8.35v3.98c0 1.42-.313 2.478-.937 3.172-.625.694-1.6 1.04-2.924 1.04l-3.844-.03c-.195-1.027-.45-2.08-.77-3.164 1.248.14 2.45.21 3.6.21 1.153 0 1.723-.613 1.71-1.834v-3.372h-8.912v-2.832zM125.798 42.374h9.098v-.542l2.788-1.812h-7.618v-2.54h11.72V40l-3.58 2.374h7.766v2.58h-8.078v2.124c0 .957-.268 1.703-.8 2.237-.536.534-1.353.805-2.453.813-1.1.007-2.228.01-3.388.01-.194-.957-.43-1.873-.707-2.747 1.055.056 2.02.083 2.894.083.97 0 1.457-.423 1.457-1.27v-1.25H125.8v-2.58zm4.164-12.7c.832.944 1.68 2 2.54 3.165l-.928.623h3.477c-.582-1.117-1.12-2.06-1.612-2.83l2.54-1.125c.555.847 1.207 1.943 1.957 3.29l-1.437.665h2.55c.95-1.367 1.753-2.554 2.405-3.56l2.81 1.54-1.686 2.02h2.997v5.12h-2.914v-2.58h-13.595v2.58h-2.915v-5.12h3.405c-.61-.84-1.204-1.61-1.78-2.31l2.187-1.48zM152.59 38.5c1.027 1.333 1.54 3.046 1.54 5.142 0 1.11-.256 1.924-.77 2.437-.527.527-1.436.79-2.728.79-.097-.944-.256-1.908-.48-2.894.307.07.55.104.73.104.583 0 .874-.443.874-1.33 0-1.444-.52-2.825-1.562-4.144.5-1.93.972-3.74 1.416-5.434h-1.54v17.112h-2.395V30.8h6.516v2.06c-.497 1.83-1.03 3.712-1.6 5.64zm12.887 5.955c.75.264 1.492.506 2.228.73-.18 1.36-.347 2.323-.5 2.892-.347 1.374-1.2 2.062-2.56 2.062h-1.083c-1.65 0-2.477-.883-2.477-2.646V42.77h-1.416c-.195 2.566-.897 4.44-2.105 5.62-.79.79-1.915 1.492-3.372 2.103-.596-.89-1.18-1.66-1.748-2.31 1.498-.653 2.58-1.306 3.247-1.957.763-.75 1.235-1.902 1.415-3.457h-2.726v-2.416h12.512v2.415h-3.27v3.892c0 .61.195.916.584.916h.438c.318 0 .52-.23.603-.687.07-.305.148-1.117.23-2.435zm-11.16-12.49h4.623c-.152-.5-.32-1.083-.5-1.75l2.894-.395c.21.708.396 1.422.563 2.144h4.787V35.9h-2.456v-1.48h-7.494v1.48h-2.415v-3.936zm1.022 4.454h10.345v2.33H155.34v-2.33z"/></g></svg>