<svg xmlns="http://www.w3.org/2000/svg" width="207" height="80" viewBox="0 0 207 80"><path fill="#BCBEC0" d="M0 0h207v80H0z"/><path fill="#E6E7E8" d="M.292.25h206.5v79.5H.292z"/><path fill="#4385C6" d="M76.988 23.315L51.65 26.877s-.523.073-.652.208c-.132.138-.126.632-.126.632v26.23s-.02 1.37.345 1.735c.217.22.95.354.95.354L76.5 58.448s.822 0 1.088-.488c.448-.822.395-1.606.395-1.606v-32.45s-.002-.443-.156-.56c-.192-.148-.84-.03-.84-.03z"/><path fill="#fff" d="M75.82 23.84l-25.336 3.413s-.524.07-.653.2c-.13.13-.125.604-.125.604V53.18s-.02 1.314.345 1.664c.217.21.95.34.95.34l24.333 2.312s.822 0 1.088-.468c.45-.788.396-1.54.396-1.54V24.407s-.002-.425-.156-.538c-.192-.14-.84-.027-.84-.027z"/><path fill="#4385C6" d="M73.488 20.435L48.15 24.407s-.523.082-.652.23c-.132.155-.126.705-.126.705v29.25s-.02 1.53.345 1.937c.217.242.95.393.95.393L73 59.615s.822 0 1.088-.544c.448-.917.395-1.79.395-1.79V21.092s-.002-.494-.156-.626c-.192-.164-.84-.032-.84-.032z"/><path fill="#F9AA3B" stroke="#fff" d="M53.178 32.703v13.912h14.688V31.723z"/><path fill="#fff" d="M55.928 36.063v7.104l8-3.552z"/><g fill="#F9AA3B"><path d="M89.83 29.467h21.427l-.6 3.32h-1.327l-1.026 5.688h1.327l-.598 3.32h-1.327l-1.644 9.102h-3.603l1.644-9.103H92.915L91.58 49.19c-.137 1.453-.89 2.117-2.257 1.99h-3.318l.513-2.844h1.14c.303.063.49-.095.56-.475l1.094-6.066h-1.61l.598-3.32h1.61l1.027-5.688H89.23l.6-3.32zm15.897 3.32H94.54l-1.027 5.688H104.7l1.027-5.69zM114.476 38.95h-2.086l.53-2.94h5.5l-2.002 11.093c-.103.568.04.822.432.758h1.043l-.53 2.94h-3.035c-1.4.063-1.94-.632-1.614-2.085l1.762-9.766zm6.338-9.387l-.563 3.13h-6.636l.563-3.13h6.637zm-2.085 18.394h.946c.305.063.6-.157.88-.664l1.254-2.75h2.844L122.712 49c-.372 1.01-1.09 1.484-2.153 1.422h-2.276l.445-2.465zm1.676-8.25l1.917-10.618h13.274l-1.558 8.627c-.148 1.517-.9 2.18-2.257 1.99h-3.034l-.223 1.234h5.025l-.48 2.656h-5.025l-1.334 7.395h-3.034l1.333-7.394h-5.404l.48-2.655h5.403l.222-1.232h-5.31zm4.167-4.17l-.31 1.707h1.897l.31-1.708h-1.897zm.685-3.793l-.29 1.61h1.895l.29-1.61h-1.895zm3.013 17.445l-.108-4.647h3.033l.074 2.75c-.082.443.104.633.56.568h.475l-.463 2.562h-2.18c-1.013 0-1.476-.41-1.39-1.233zm2.83-12.516l.205-1.14h-1.802l-.31 1.71h1.233c.37.062.594-.127.673-.57zm-1.204-3.32h1.802l.29-1.61h-1.8l-.292 1.61zM140.16 50.043h-5.69l3.765-20.86h8.438l-3.318 18.396c-.298 1.64-1.364 2.463-3.196 2.463zm2.984-18.11h-2.276l-2.79 15.456h1.708c.367.062.587-.097.655-.476l2.704-14.98zm4.347-2.56h12.138l-2.206 12.23c-.383 1.77-1.333 2.656-2.85 2.656h-6.638l-.615 3.41c-.146.444-.022.634.37.57h8.63l-.498 2.75h-9.86c-1.494-.128-2.12-1.043-1.874-2.75l3.403-18.867zm4.153 2.75h-1.518l-1.677 9.292h1.518l1.677-9.292zm4.55 0h-1.517l-1.693 9.387h1.232c.177.063.295-.063.353-.38l1.625-9.007z"/></g></svg>